# xmcd CD database file
#
# Track frame offsets:
#	150
#	16061
#	41923
#	57198
#	90174
#	112710
#	127754
#	167491
#	217206
#	236433
#	290667
#	305771
#
# Disc length: 4665 seconds
#
# Revision: 1
# Processed by: cddbd v1.5.2PL0 Copyright (c) Steve Scherf et al.
# Submitted via: CDex 1.51
#
DISCID=9812370c
DTITLE=Klaus Schønning - Fresh Global Tunes
DYEAR=2011
DGENRE=Jazz
TTITLE0=Reflections
TTITLE1=The Longing of the Mermaid
TTITLE2=Sunlight in the Ripples
TTITLE3=At the Brink of Eufrates
TTITLE4=Chinese Twilight
TTITLE5=Dawn
TTITLE6=Daybreak at Yangtze
TTITLE7=Flying High
TTITLE8=Glimpses of Sound
TTITLE9=Nightfall at Ganges
TTITLE10=Spring Festival at River Mekong
TTITLE11=Styx
EXTD=YEAR: 2011
EXTT0=
EXTT1=
EXTT2=
EXTT3=
EXTT4=
EXTT5=
EXTT6=
EXTT7=
EXTT8=
EXTT9=
EXTT10=
EXTT11=
PLAYORDER=
